<?xml version="1.0" encoding="UTF-8"?>
<!DOCTYPE svg PUBLIC "-//W3C//DTD SVG 1.1//EN" "http://www.w3.org/Graphics/SVG/1.1/DTD/svg11.dtd">
<svg xmlns="http://www.w3.org/2000/svg" version="1.1" width="360px" height="360px" style="shape-rendering:geometricPrecision; text-rendering:geometricPrecision; image-rendering:optimizeQuality; fill-rule:evenodd; clip-rule:evenodd" xmlns:xlink="http://www.w3.org/1999/xlink">
<g><path style="opacity:0.997" fill="#fa3768" d="M 85.5,-0.5 C 133.833,-0.5 182.167,-0.5 230.5,-0.5C 196.833,33.8333 162.833,67.8333 128.5,101.5C 122.533,91.888 113.866,88.388 102.5,91C 90.8604,96.2449 87.6938,104.745 93,116.5C 95.9046,120.582 99.7379,123.249 104.5,124.5C 102.237,128.103 99.5703,131.436 96.5,134.5C 94.8333,135.5 93.5,136.833 92.5,138.5C 61.5,169.167 30.5,199.833 -0.5,230.5C -0.5,182.167 -0.5,133.833 -0.5,85.5C 9.16667,37.8333 37.8333,9.16667 85.5,-0.5 Z"/></g>
<g><path style="opacity:1" fill="#fa3964" d="M 230.5,-0.5 C 243.167,-0.5 255.833,-0.5 268.5,-0.5C 221.5,47.1667 174.167,94.5 126.5,141.5C 126.415,139.071 125.415,137.071 123.5,135.5C 114.525,134.502 105.525,134.168 96.5,134.5C 99.5703,131.436 102.237,128.103 104.5,124.5C 121.673,126.326 129.673,118.659 128.5,101.5C 162.833,67.8333 196.833,33.8333 230.5,-0.5 Z"/></g>
<g><path style="opacity:0.997" fill="#fa3b60" d="M 268.5,-0.5 C 270.167,-0.5 271.833,-0.5 273.5,-0.5C 292.427,2.29752 309.094,9.96419 323.5,22.5C 285.117,59.8826 247.45,97.8826 210.5,136.5C 195.115,132.335 179.782,132.502 164.5,137C 142.001,148.155 132.168,166.322 135,191.5C 135.855,196.92 137.022,202.253 138.5,207.5C 134.5,211.167 130.5,214.833 126.5,218.5C 126.5,192.833 126.5,167.167 126.5,141.5C 174.167,94.5 221.5,47.1667 268.5,-0.5 Z"/></g>
<g><path style="opacity:0.996" fill="#fb3e5b" d="M 323.5,22.5 C 329.459,26.6247 334.626,31.6247 339,37.5C 343.95,44.4006 348.116,51.7339 351.5,59.5C 330.167,80.5 308.833,101.5 287.5,122.5C 287.666,115.159 287.5,107.826 287,100.5C 286.167,99.6667 285.333,98.8333 284.5,98C 274.589,97.1819 264.756,97.3485 255,98.5C 252.991,101.469 252.158,104.802 252.5,108.5C 253.309,124.496 253.976,140.496 254.5,156.5C 249.5,161.167 244.5,165.833 239.5,170.5C 235.592,154.259 225.925,142.925 210.5,136.5C 247.45,97.8826 285.117,59.8826 323.5,22.5 Z"/></g>
<g><path style="opacity:0.997" fill="#fb4154" d="M 351.5,59.5 C 355.179,67.87 357.846,76.5366 359.5,85.5C 359.5,94.5 359.5,103.5 359.5,112.5C 335.035,136.465 310.701,160.632 286.5,185C 285.906,185.464 285.239,185.631 284.5,185.5C 285.191,164.484 286.191,143.484 287.5,122.5C 308.833,101.5 330.167,80.5 351.5,59.5 Z"/></g>
<g><path style="opacity:1" fill="#fffcfd" d="M 128.5,101.5 C 129.673,118.659 121.673,126.326 104.5,124.5C 99.7379,123.249 95.9046,120.582 93,116.5C 87.6938,104.745 90.8604,96.2449 102.5,91C 113.866,88.388 122.533,91.888 128.5,101.5 Z"/></g>
<g><path style="opacity:1" fill="#fffcfc" d="M 287.5,122.5 C 286.191,143.484 285.191,164.484 284.5,185.5C 284.5,188.167 284.5,190.833 284.5,193.5C 274.833,193.5 265.167,193.5 255.5,193.5C 255.472,181.156 255.138,168.823 254.5,156.5C 253.976,140.496 253.309,124.496 252.5,108.5C 252.158,104.802 252.991,101.469 255,98.5C 264.756,97.3485 274.589,97.1819 284.5,98C 285.333,98.8333 286.167,99.6667 287,100.5C 287.5,107.826 287.666,115.159 287.5,122.5 Z"/></g>
<g><path style="opacity:1" fill="#fb434f" d="M 359.5,112.5 C 359.5,126.5 359.5,140.5 359.5,154.5C 336.368,177.132 313.368,199.965 290.5,223C 289.906,223.464 289.239,223.631 288.5,223.5C 291.198,210.857 286.198,203.191 273.5,200.5C 273.389,199.883 273.056,199.383 272.5,199C 275.705,195.283 279.705,193.45 284.5,193.5C 284.5,190.833 284.5,188.167 284.5,185.5C 285.239,185.631 285.906,185.464 286.5,185C 310.701,160.632 335.035,136.465 359.5,112.5 Z"/></g>
<g><path style="opacity:1" fill="#fffdfd" d="M 210.5,136.5 C 225.925,142.925 235.592,154.259 239.5,170.5C 242.775,187.531 239.608,203.197 230,217.5C 214.882,233.371 196.382,239.371 174.5,235.5C 169.442,234.036 164.442,232.37 159.5,230.5C 155.232,227.411 151.066,224.077 147,220.5C 143.91,216.261 141.077,211.928 138.5,207.5C 137.022,202.253 135.855,196.92 135,191.5C 132.168,166.322 142.001,148.155 164.5,137C 179.782,132.502 195.115,132.335 210.5,136.5 Z"/></g>
<g><path style="opacity:1" fill="#fffdfd" d="M 96.5,134.5 C 105.525,134.168 114.525,134.502 123.5,135.5C 125.415,137.071 126.415,139.071 126.5,141.5C 126.5,167.167 126.5,192.833 126.5,218.5C 128.789,236.308 124.622,252.308 114,266.5C 101.395,276.226 87.2282,279.226 71.5,275.5C 70.791,274.596 69.791,274.263 68.5,274.5C 68.3336,266.16 68.5003,257.827 69,249.5C 71.3186,247.064 73.8186,246.897 76.5,249C 83.5406,251.35 88.374,249.183 91,242.5C 92.4328,220.539 92.9328,198.539 92.5,176.5C 92.5,163.833 92.5,151.167 92.5,138.5C 93.5,136.833 94.8333,135.5 96.5,134.5 Z"/></g>
<g><path style="opacity:1" fill="#fa3964" d="M 92.5,138.5 C 92.5,151.167 92.5,163.833 92.5,176.5C 61.5,207.167 30.5,237.833 -0.5,268.5C -0.5,255.833 -0.5,243.167 -0.5,230.5C 30.5,199.833 61.5,169.167 92.5,138.5 Z"/></g>
<g><path style="opacity:1" fill="#fb454b" d="M 359.5,154.5 C 359.5,163.5 359.5,172.5 359.5,181.5C 299.833,240.5 240.5,299.833 181.5,359.5C 172.5,359.5 163.5,359.5 154.5,359.5C 195.5,318.167 236.5,276.833 277.5,235.5C 282.549,232.783 286.216,228.783 288.5,223.5C 289.239,223.631 289.906,223.464 290.5,223C 313.368,199.965 336.368,177.132 359.5,154.5 Z"/></g>
<g><path style="opacity:0.998" fill="#fb4255" d="M 254.5,156.5 C 255.138,168.823 255.472,181.156 255.5,193.5C 265.167,193.5 274.833,193.5 284.5,193.5C 279.705,193.45 275.705,195.283 272.5,199C 273.056,199.383 273.389,199.883 273.5,200.5C 257.812,199.521 250.479,206.854 251.5,222.5C 250.883,222.389 250.383,222.056 250,221.5C 203.965,267.368 158.132,313.368 112.5,359.5C 103.5,359.5 94.5,359.5 85.5,359.5C 76.5366,357.846 67.87,355.179 59.5,351.5C 97.8333,312.833 136.167,274.167 174.5,235.5C 196.382,239.371 214.882,233.371 230,217.5C 239.608,203.197 242.775,187.531 239.5,170.5C 244.5,165.833 249.5,161.167 254.5,156.5 Z"/></g>
<g><path style="opacity:1" fill="#fb405c" d="M 180.5,160.5 C 194.131,157.283 202.631,162.283 206,175.5C 207.44,184.936 206.106,193.936 202,202.5C 200.039,205.135 197.539,206.969 194.5,208C 189.833,208.667 185.167,208.667 180.5,208C 175.572,206.073 172.406,202.573 171,197.5C 169.477,189.898 169.144,182.232 170,174.5C 171.828,168.515 175.328,163.848 180.5,160.5 Z"/></g>
<g><path style="opacity:0.995" fill="#fa3b60" d="M 92.5,176.5 C 92.9328,198.539 92.4328,220.539 91,242.5C 88.374,249.183 83.5406,251.35 76.5,249C 73.8186,246.897 71.3186,247.064 69,249.5C 68.5003,257.827 68.3336,266.16 68.5,274.5C 69.791,274.263 70.791,274.596 71.5,275.5C 54.551,290.781 38.2177,306.781 22.5,323.5C 9.96419,309.094 2.29752,292.427 -0.5,273.5C -0.5,271.833 -0.5,270.167 -0.5,268.5C 30.5,237.833 61.5,207.167 92.5,176.5 Z"/></g>
<g><path style="opacity:1" fill="#fc4747" d="M 359.5,181.5 C 359.5,201.167 359.5,220.833 359.5,240.5C 319.5,279.833 279.833,319.5 240.5,359.5C 220.833,359.5 201.167,359.5 181.5,359.5C 240.5,299.833 299.833,240.5 359.5,181.5 Z"/></g>
<g><path style="opacity:1" fill="#fffcfc" d="M 273.5,200.5 C 286.198,203.191 291.198,210.857 288.5,223.5C 286.216,228.783 282.549,232.783 277.5,235.5C 268.94,237.039 261.44,235.039 255,229.5C 253.354,227.391 252.188,225.057 251.5,222.5C 250.479,206.854 257.812,199.521 273.5,200.5 Z"/></g>
<g><path style="opacity:0.995" fill="#fb3e5b" d="M 138.5,207.5 C 141.077,211.928 143.91,216.261 147,220.5C 151.066,224.077 155.232,227.411 159.5,230.5C 158.761,230.369 158.094,230.536 157.5,231C 119.965,268.701 82.2987,306.201 44.5,343.5C 35.5933,338.595 28.26,331.928 22.5,323.5C 38.2177,306.781 54.551,290.781 71.5,275.5C 87.2282,279.226 101.395,276.226 114,266.5C 124.622,252.308 128.789,236.308 126.5,218.5C 130.5,214.833 134.5,211.167 138.5,207.5 Z"/></g>
<g><path style="opacity:1" fill="#fb434f" d="M 251.5,222.5 C 252.188,225.057 253.354,227.391 255,229.5C 261.44,235.039 268.94,237.039 277.5,235.5C 236.5,276.833 195.5,318.167 154.5,359.5C 140.5,359.5 126.5,359.5 112.5,359.5C 158.132,313.368 203.965,267.368 250,221.5C 250.383,222.056 250.883,222.389 251.5,222.5 Z"/></g>
<g><path style="opacity:0.997" fill="#fb3f58" d="M 159.5,230.5 C 164.442,232.37 169.442,234.036 174.5,235.5C 136.167,274.167 97.8333,312.833 59.5,351.5C 54.0157,349.593 49.0157,346.927 44.5,343.5C 82.2987,306.201 119.965,268.701 157.5,231C 158.094,230.536 158.761,230.369 159.5,230.5 Z"/></g>
<g><path style="opacity:0.998" fill="#fc4942" d="M 359.5,240.5 C 359.5,251.5 359.5,262.5 359.5,273.5C 349.833,321.167 321.167,349.833 273.5,359.5C 262.5,359.5 251.5,359.5 240.5,359.5C 279.833,319.5 319.5,279.833 359.5,240.5 Z"/></g>
</svg>
